<?xml version="1.0" standalone="no"?>
<!DOCTYPE svg PUBLIC "-//W3C//DTD SVG 20010904//EN"
 "http://www.w3.org/TR/2001/REC-SVG-20010904/DTD/svg10.dtd">
<svg version="1.0" xmlns="http://www.w3.org/2000/svg"
 width="2480.000000pt" height="3508.000000pt" viewBox="0 0 2480.000000 3508.000000"
 preserveAspectRatio="xMidYMid meet">

<g transform="translate(0.000000,3508.000000) scale(0.100000,-0.100000)"
fill="#000000" stroke="none">
<path d="M12585 29496 c-107 -34 -197 -107 -270 -216 -99 -148 -135 -291 -135
-532 0 -99 4 -158 10 -158 6 0 10 28 10 65 0 187 38 373 104 510 75 156 169
248 301 294 40 14 74 31 76 36 6 15 -51 16 -96 1z"/>
<path d="M12634 29426 c-146 -68 -278 -297 -314 -545 -14 -95 -9 -361 8 -401
14 -32 14 -30 12 120 -1 138 10 234 41 355 52 204 163 380 284 448 39 23 57
47 33 47 -7 0 -36 -11 -64 -24z"/>
<path d="M13020 29180 c-189 -41 -299 -97 -416 -214 -68 -68 -89 -97 -127
-176 -49 -103 -91 -233 -107 -335 -11 -67 -6 -95 15 -95 14 0 25 31 25 75 0
52 65 220 115 301 97 155 240 277 427 363 93 43 207 81 244 81 13 0 24 5 24
10 0 16 -106 10 -200 -10z"/>
<path d="M13084 29072 c-104 -55 -200 -127 -285 -212 -142 -144 -206 -276
-197 -408 6 -85 39 -155 71 -150 26 4 26 23 2 88 -37 98 -2 222 101 356 95
125 291 299 373 333 31 13 42 31 19 31 -7 0 -45 -17 -84 -38z"/>
<path d="M9025 29084 c-144 -15 -180 -25 -212 -56 -18 -18 -33 -37 -33 -44 0
-6 -8 -18 -17 -25 -25 -21 -167 -320 -201 -425 -60 -180 -75 -340 -61 -668
l10 -230 -45 -45 c-108 -112 -174 -264 -186 -430 -6 -92 -9 -101 -67 -216 -34
-66 -73 -135 -87 -154 -19 -26 -23 -37 -13 -43 8 -5 7 -8 -6 -8 -11 0 -27 -10
-37 -22 -18 -22 -18 -24 2 -45 27 -28 16 -41 -22 -26 -33 13 -50 1 -50 -34 0
-16 -8 -24 -27 -29 -16 -4 -51 -23 -79 -41 -38 -25 -58 -32 -76 -28 -69 17
-14 -90 82 -160 69 -51 185 -102 287 -126 123 -29 285 -23 393 15 l75 27 55
-28 c75 -38 171 -37 284 1 43 15 80 25 81 24 4 -4 -30 -225 -50 -333 -16 -84
-20 -93 -63 -138 l-47 -47 -11 32 c-6 18 -19 35 -28 36 -22 5 -52 -23 -60 -54
-4 -14 -17 -40 -29 -59 l-21 -33 -26 52 c-26 52 -65 81 -94 70 -24 -9 -34 -60
-39 -209 -6 -161 -21 -218 -82 -310 -22 -33 -42 -62 -45 -65 -3 -3 -9 -12 -15
-22 -5 -9 -32 -49 -60 -90 -27 -40 -58 -91 -69 -113 -27 -56 -137 -196 -178
-226 -31 -23 -64 -44 -163 -99 -22 -13 -64 -31 -93 -41 -43 -15 -53 -16 -49
-4 3 7 18 65 32 127 15 62 35 141 46 175 10 34 19 69 19 78 0 8 4 23 10 33 12
22 50 283 43 297 -3 5 9 -7 27 -28 39 -46 142 -97 194 -97 63 0 108 31 145
100 25 46 32 70 28 94 -9 56 -49 127 -102 181 -42 43 -60 54 -104 64 -29 6
-57 9 -62 5 -36 -22 47 216 139 394 40 79 72 145 70 147 -2 1 -34 7 -72 12
l-69 10 -43 -93 c-24 -52 -64 -151 -88 -221 -24 -71 -67 -186 -95 -258 -28
-71 -51 -137 -51 -145 0 -9 -4 -20 -10 -26 -9 -9 -69 -191 -120 -369 -27 -96
-40 -145 -97 -390 -33 -140 -56 -210 -155 -475 -45 -118 -87 -242 -94 -275
-17 -79 -17 -195 1 -275 8 -36 20 -92 27 -126 11 -57 15 -63 55 -84 50 -26 51
-35 4 -19 -18 6 -34 9 -37 7 -10 -10 25 -141 56 -211 28 -65 35 -74 54 -69 20
5 21 5 3 -15 -18 -21 -17 -22 75 -115 157 -159 246 -268 294 -358 62 -115 106
-172 205 -261 122 -110 161 -133 353 -209 204 -81 287 -100 431 -100 94 0 105
-2 105 -18 0 -10 -4 -22 -9 -28 -16 -15 -67 -123 -110 -230 -54 -137 -71 -227
-71 -378 0 -170 21 -234 103 -322 54 -58 57 -65 46 -86 -12 -22 -25 -65 -103
-338 -104 -363 -166 -744 -186 -1135 -19 -365 -28 -480 -44 -540 -9 -32 -16
-98 -16 -145 0 -47 -4 -101 -9 -120 -39 -144 -47 -472 -42 -1690 1 -140 0
-264 -1 -275 -2 -11 3 -58 9 -105 7 -47 17 -124 23 -172 l11 -88 -68 -64 c-73
-68 -139 -169 -166 -251 -27 -83 -58 -226 -51 -237 5 -7 2 -8 -6 -3 -10 6 -12
4 -7 -9 4 -9 2 -38 -4 -64 l-10 -48 -98 17 c-271 49 -330 81 -563 307 -140
136 -193 211 -253 354 -81 198 -115 356 -115 542 0 104 3 128 29 205 48 142
243 551 427 896 253 475 305 622 356 1010 36 283 25 735 -28 1115 -26 191 -82
356 -199 591 -68 135 -275 462 -342 540 -16 18 -74 92 -127 163 -164 218 -252
306 -456 458 -84 63 -360 225 -460 270 -109 49 -219 72 -355 72 -138 0 -205
-14 -332 -74 -286 -133 -464 -323 -545 -580 -42 -136 -28 -383 32 -544 48
-127 189 -336 291 -431 76 -71 128 -101 349 -206 107 -51 264 -130 348 -176
84 -46 155 -83 157 -83 3 0 58 -30 122 -66 149 -83 247 -157 306 -233 67 -84
140 -243 188 -406 l42 -140 -11 -116 c-7 -63 -25 -165 -40 -225 -118 -445 -98
-389 -282 -759 -221 -441 -320 -710 -370 -1000 -12 -72 -30 -168 -40 -215 -45
-206 -48 -318 -14 -579 40 -313 130 -564 266 -746 108 -144 336 -352 496 -452
143 -90 361 -168 602 -216 203 -41 291 -49 420 -38 63 5 118 7 121 3 5 -6 39
-173 39 -192 0 -3 -12 -7 -27 -8 -143 -11 -649 -125 -868 -195 -60 -19 -141
-40 -180 -47 -174 -28 -481 -122 -880 -271 -278 -103 -362 -139 -420 -180 -26
-19 -89 -61 -140 -94 -64 -42 -121 -90 -184 -157 -152 -163 -178 -224 -128
-299 19 -29 37 -39 122 -67 72 -23 122 -33 177 -35 43 -1 78 -6 78 -10 0 -4
-7 -22 -16 -39 -20 -39 -12 -103 19 -149 36 -53 120 -116 179 -132 89 -26 199
-19 386 25 42 10 57 10 70 0 60 -44 107 -56 212 -56 116 0 154 9 305 76 142
63 273 140 510 298 283 189 353 233 680 425 286 168 381 228 457 292 44 36
287 178 293 171 8 -9 -27 -223 -45 -282 -13 -41 -20 -83 -17 -101 3 -21 -1
-41 -11 -57 -144 -213 -157 -237 -217 -388 -22 -57 -58 -123 -89 -165 -29 -38
-69 -99 -90 -135 -21 -36 -53 -83 -70 -105 -18 -22 -51 -67 -73 -100 -62 -91
-88 -111 -177 -136 -44 -12 -121 -36 -170 -54 -74 -26 -112 -33 -207 -39 -64
-4 -127 -9 -140 -12 -13 -3 -114 -5 -224 -5 -304 0 -668 -44 -871 -105 -44
-13 -88 -24 -98 -24 -41 0 -238 -75 -350 -133 -234 -122 -327 -237 -302 -373
10 -51 84 -122 171 -164 39 -19 72 -35 74 -37 3 -2 -7 -16 -22 -31 -38 -40
-69 -117 -74 -186 -4 -52 -2 -66 19 -95 12 -19 45 -46 73 -60 45 -24 60 -26
177 -26 70 0 128 0 128 0 0 0 -9 -24 -20 -53 -32 -83 -24 -141 26 -193 l25
-26 -66 -58 c-76 -67 -200 -244 -211 -300 -11 -58 0 -142 22 -166 10 -12 37
-30 60 -40 l41 -19 -19 -57 c-32 -94 -7 -165 88 -252 56 -51 131 -93 190 -105
45 -9 184 -10 232 -2 40 7 45 6 87 -33 134 -124 359 -154 570 -76 55 20 114
38 130 39 89 8 263 129 305 211 146 283 146 284 274 415 67 69 177 188 246
265 69 77 164 178 211 225 47 47 105 111 128 143 23 32 84 99 135 150 50 51
121 124 155 162 146 160 264 272 314 297 133 67 349 143 490 173 37 8 112 34
165 58 74 34 129 51 232 70 74 14 225 46 335 72 110 25 225 51 255 56 30 6 78
15 105 21 61 12 94 1 182 -64 33 -24 98 -64 144 -88 46 -23 116 -72 156 -107
39 -34 102 -82 140 -104 37 -23 84 -54 103 -69 19 -15 73 -40 119 -54 75 -24
166 -76 196 -113 25 -31 475 -120 520 -103 15 6 31 7 36 4 6 -3 15 -2 22 3 7
6 48 6 103 0 98 -11 830 4 872 18 l22 7 0 -193 c0 -243 -10 -365 -55 -671 -20
-134 -49 -335 -66 -447 -60 -413 -92 -502 -259 -718 l-102 -131 -106 -46 c-59
-25 -130 -52 -157 -61 -134 -39 -247 -144 -301 -277 -26 -65 -29 -84 -29 -188
0 -137 25 -229 90 -325 46 -68 154 -148 251 -185 94 -36 224 -38 348 -6 56 14
109 34 120 46 l22 19 42 -49 c79 -91 195 -129 405 -132 161 -2 274 27 321 82
l24 29 59 -32 c55 -31 63 -32 168 -32 124 0 147 7 246 72 87 56 123 98 202
231 107 179 123 217 137 321 6 51 25 132 41 180 66 194 71 220 79 481 5 135
13 288 19 340 23 214 38 414 61 800 14 241 38 538 55 675 23 195 35 313 44
437 4 65 11 121 14 125 4 3 30 1 58 -5 28 -7 67 -12 87 -12 62 0 349 84 482
140 112 48 136 54 230 62 95 9 116 14 214 59 60 28 148 59 195 70 253 59 394
117 586 239 50 32 101 61 115 65 73 22 249 131 457 284 54 40 190 133 303 208
320 213 376 261 606 518 74 83 171 191 216 240 144 160 270 350 364 553 30 64
71 146 90 182 66 123 296 595 320 658 14 35 36 128 49 205 13 78 38 187 54
242 36 123 46 173 71 345 10 74 28 171 39 215 29 112 52 292 56 448 2 73 9
157 15 187 19 84 17 375 -5 650 -3 30 -9 172 -14 315 -9 261 -15 314 -51 480
-11 50 -29 142 -41 205 -23 126 -46 208 -108 375 -22 61 -64 178 -94 261 -30
83 -71 187 -91 231 -20 44 -36 83 -36 86 0 3 -28 68 -61 144 -99 221 -195 463
-269 676 -38 109 -97 253 -131 320 -74 146 -120 253 -161 367 -79 223 -275
565 -590 1027 -167 247 -527 662 -695 801 -32 27 -86 80 -119 117 -32 37 -106
118 -164 179 -58 62 -163 181 -234 266 -150 181 -164 194 -234 226 -37 17 -83
55 -155 127 -73 74 -135 125 -217 178 -63 42 -144 99 -180 128 -68 56 -209
131 -245 131 -40 0 -96 76 -117 159 -27 105 -91 231 -216 426 -59 94 -121 193
-136 221 l-28 51 42 80 c35 66 43 94 48 151 6 89 -18 167 -58 190 l-28 16 5
113 c7 142 -7 251 -62 468 -124 491 -316 844 -551 1011 -102 73 -202 112 -219
85 -3 -5 32 -47 78 -93 128 -127 287 -380 392 -622 62 -142 137 -372 170 -520
60 -269 96 -616 72 -683 -6 -15 -5 -23 3 -23 12 0 41 59 70 143 20 57 30 44
30 -37 0 -119 -62 -252 -160 -339 -90 -81 -167 -108 -570 -207 -52 -12 -100
-29 -106 -36 -11 -14 -159 31 -512 155 -182 64 -215 70 -242 46 -14 -13 -23
-12 -73 8 -31 12 -57 24 -57 27 0 3 27 13 60 23 33 9 60 22 60 28 0 7 -9 9
-22 5 -141 -40 -358 14 -504 124 -116 87 -191 178 -383 460 -62 91 -124 177
-138 192 l-25 26 23 4 c23 4 23 5 4 12 -63 22 -417 216 -504 276 -31 21 -80
59 -109 84 -29 25 -59 49 -65 53 -7 5 -20 25 -29 46 -10 20 -22 37 -26 37 -30
0 -566 -263 -910 -447 -129 -68 -235 -123 -237 -121 -2 2 47 31 108 64 62 34
184 101 272 149 195 106 514 266 652 326 56 24 101 49 100 54 -7 20 -103 86
-157 106 -83 31 -146 23 -261 -33 -157 -76 -463 -319 -655 -520 -54 -57 -79
-80 -57 -53 90 110 304 307 481 444 45 36 80 66 77 69 -7 8 -151 -64 -276
-138 -132 -78 -158 -90 -284 -124 -153 -42 -164 -47 -197 -90 -54 -70 -63 -72
-16 -4 10 14 18 28 18 30 0 1 -42 4 -93 5 -124 3 -172 16 -238 66 -31 23 -101
76 -157 118 -169 129 -284 168 -429 148 -73 -10 -176 -41 -233 -69 -19 -10
-71 -27 -115 -39 -45 -12 -118 -43 -165 -70 -205 -116 -344 -171 -429 -170
-47 0 -119 16 -85 18 19 2 94 63 88 73 -4 5 -13 4 -22 -5 -10 -8 -37 -25 -62
-38 -43 -23 -53 -24 -250 -23 -234 0 -350 19 -468 74 -69 32 -132 75 -132 89
0 5 17 12 37 16 102 19 254 114 347 217 103 113 126 182 145 428 5 69 16 144
24 168 38 109 127 217 286 344 97 77 205 133 300 156 86 20 93 37 14 29 l-58
-5 59 19 c107 35 376 64 376 40 0 -17 259 -14 366 4 113 20 274 66 350 101
264 120 369 161 385 151 21 -13 36 -9 218 67 306 128 461 147 771 97 102 -17
104 -18 76 -32 -32 -15 -32 -35 -1 -33 11 1 81 18 155 37 180 46 377 80 472
81 l77 1 -42 43 c-56 58 -212 175 -278 209 -75 39 -161 39 -242 -1 -53 -25
-77 -49 -65 -61 3 -3 37 6 76 20 39 14 86 25 104 25 43 0 111 -33 228 -109
l94 -61 -44 0 c-56 0 -168 -27 -331 -79 -70 -23 -134 -41 -143 -41 -9 0 -92
24 -184 54 -92 30 -194 57 -227 61 -76 8 -181 -12 -306 -59 -52 -19 -130 -42
-173 -51 l-79 -17 -70 79 c-124 139 -308 312 -413 389 -193 140 -465 245 -804
309 -88 16 -256 26 -325 19z m120 -166 c44 -10 173 -50 287 -88 464 -156 542
-201 812 -473 137 -139 165 -172 152 -179 -9 -5 -20 -6 -25 -3 -6 3 -36 -1
-68 -9 -32 -8 -92 -22 -133 -31 -41 -9 -151 -42 -244 -72 -110 -36 -172 -51
-178 -45 -5 5 -31 52 -57 104 -96 192 -325 508 -435 600 -77 65 -194 128 -236
128 -36 0 -50 -18 -81 -109 -15 -42 -43 -119 -64 -171 -20 -52 -43 -124 -50
-160 -23 -112 -23 -313 0 -247 2 6 9 25 15 41 l11 29 24 -23 c19 -18 22 -27
14 -42 -6 -10 -15 -16 -22 -12 -7 4 -2 -4 11 -18 33 -37 26 -46 -10 -12 -32
28 -32 28 -9 1 28 -31 41 -97 15 -76 -7 6 -11 16 -7 22 4 6 1 7 -6 3 -9 -6 -9
-12 2 -24 8 -10 13 -25 12 -34 -2 -10 1 -20 6 -24 5 -3 6 -10 3 -16 -4 -7 -2
-8 4 -4 7 4 12 1 12 -9 0 -9 -4 -14 -8 -11 -5 3 -7 -11 -5 -31 3 -45 -4 -57
-25 -41 -15 11 -15 11 -4 -4 8 -10 9 -18 3 -22 -6 -4 -7 -14 -4 -23 4 -10 2
-14 -4 -10 -6 4 -16 20 -21 37 -11 31 -7 34 36 33 10 -1 10 2 1 13 -7 8 -7 14
-1 14 12 0 8 45 -7 83 -6 15 -8 27 -5 27 4 0 2 6 -3 13 -17 22 -24 49 -10 41
6 -4 3 2 -8 14 -11 11 -33 39 -49 61 -17 23 -33 41 -38 41 -17 0 -7 -95 17
-161 17 -48 20 -67 11 -63 -7 3 -21 -2 -30 -11 -17 -18 -13 -33 31 -119 l20
-40 -71 -31 c-60 -26 -72 -29 -80 -17 -12 20 2 341 19 456 21 140 58 244 162
456 100 204 134 260 159 260 7 0 14 4 14 10 0 11 30 6 145 -22z m-158 -305
c-4 -3 -1 -13 6 -22 11 -14 10 -14 -5 -2 -16 12 -16 31 -1 31 4 0 3 -3 0 -7z
m-13 -54 c-4 -7 -9 -23 -10 -35 -2 -17 2 -22 14 -18 15 5 15 4 0 -6 -19 -12
-24 -45 -9 -54 4 -3 7 -32 6 -63 -2 -32 1 -63 7 -70 6 -7 5 -14 -2 -18 -6 -4
-9 -1 -8 6 2 6 -2 13 -9 16 -9 3 -11 -24 -3 -34 2 -2 3 -6 4 -10 1 -5 5 -13 9
-20 4 -6 3 -14 -2 -18 -5 -3 -8 -14 -6 -25 2 -11 0 -22 -4 -24 -10 -6 -8 35 2
51 4 6 3 14 -3 18 -6 4 -8 10 -5 15 3 4 -2 13 -10 20 -18 15 -18 10 -5 -24 5
-14 6 -28 1 -30 -4 -3 -7 -15 -6 -28 1 -13 -2 -31 -7 -41 -5 -10 -7 -26 -4
-34 6 -14 9 -13 29 3 22 19 22 19 4 -2 -9 -11 -14 -25 -10 -29 5 -5 0 -3 -9 4
-10 7 -18 9 -18 3 0 -12 25 -34 32 -27 2 3 5 -2 5 -10 0 -13 -3 -13 -18 1 -10
9 -20 11 -23 6 -3 -6 1 -13 10 -16 13 -5 14 -9 4 -21 -7 -8 -10 -21 -7 -29 3
-7 1 -18 -4 -23 -5 -5 -3 -20 6 -36 8 -16 10 -29 4 -33 -6 -4 -7 -10 0 -17 6
-8 5 -19 -5 -31 -10 -14 -14 -16 -15 -5 0 8 -4 4 -9 -8 -5 -13 -17 -23 -26
-23 -15 0 -14 3 5 24 12 13 21 30 20 37 -2 8 0 27 4 43 6 21 3 33 -10 48 -18
20 -18 24 -3 43 5 6 7 20 6 30 -2 11 1 26 7 33 7 9 5 18 -6 30 -13 15 -14 19
-1 36 13 18 11 23 -15 50 -25 27 -27 35 -19 56 6 14 13 43 15 65 2 21 7 42 11
45 4 3 8 16 8 30 1 14 5 36 8 50 4 14 8 30 9 36 2 5 12 21 24 34 12 12 20 28
16 33 -4 6 -1 7 7 2 10 -6 12 -4 6 11 -5 14 -4 16 5 7 6 -6 8 -17 3 -24z m27
-2 c-6 -8 -8 -16 -5 -19 3 -3 1 -9 -4 -12 -6 -3 -9 0 -8 6 2 16 15 38 23 38 3
0 0 -6 -6 -13z m-16 -77 c-4 -6 -1 -19 6 -28 12 -16 12 -16 -5 0 -16 14 -15
38 0 38 3 0 2 -5 -1 -10z m-44 -333 c-10 -9 -11 -8 -5 6 3 10 9 15 12 12 3 -3
0 -11 -7 -18z m10 -110 c-6 -8 -7 -18 -3 -22 4 -5 1 -5 -6 -1 -10 6 -10 11 -1
22 6 8 14 14 16 14 3 0 0 -6 -6 -13z m-6 -54 c-1 -10 3 -25 9 -33 9 -13 9 -13
-6 -2 -13 10 -16 26 -9 50 4 11 9 -2 6 -15z m3686 -1920 c13 -16 12 -17 -3 -4
-10 7 -18 15 -18 17 0 8 8 3 21 -13z m-3757 -375 c9 -38 41 -37 83 4 l33 32 0
-157 c0 -114 -5 -183 -20 -259 -37 -196 -62 -383 -63 -473 0 -78 4 -101 32
-171 17 -45 50 -110 73 -145 65 -102 104 -186 137 -303 71 -245 175 -403 314
-472 29 -15 68 -40 89 -55 20 -16 51 -35 69 -43 31 -13 37 -12 79 9 233 118
709 312 1020 415 405 136 654 182 805 151 39 -9 39 -9 -18 -10 -174 -3 -788
-190 -1317 -400 -323 -129 -472 -195 -453 -202 10 -4 70 -19 133 -34 158 -37
333 -43 585 -19 105 10 249 19 320 20 72 1 279 6 460 10 365 8 467 1 644 -43
101 -25 109 -26 205 -14 333 41 742 152 911 246 91 51 379 192 480 235 50 21
140 54 200 75 157 53 247 92 345 148 108 63 158 103 201 162 19 26 67 83 107
128 88 98 153 194 177 262 20 54 41 85 59 85 6 0 42 16 80 35 47 23 84 35 112
35 71 0 216 30 276 57 41 18 78 46 125 96 43 46 64 63 61 49 -4 -14 -2 -22 7
-22 7 0 33 -35 57 -77 25 -43 78 -132 118 -198 119 -193 141 -257 226 -657 9
-40 -14 -125 -52 -193 -18 -33 -51 -105 -72 -160 -22 -55 -65 -153 -96 -217
-65 -135 -46 -118 -391 -345 -225 -148 -406 -247 -640 -353 -208 -94 -601
-250 -785 -311 -201 -66 -591 -160 -914 -220 -384 -71 -573 -108 -966 -189
-723 -149 -888 -168 -1440 -170 -213 0 -253 3 -425 30 -104 16 -239 35 -300
43 l-110 14 290 1 c293 1 331 4 534 47 112 24 131 40 131 108 0 27 -7 41 -32
62 -29 25 -38 27 -93 22 -33 -2 -109 -14 -168 -26 -103 -20 -133 -20 -695 -17
l-587 3 -150 58 c-82 31 -163 62 -180 67 -42 16 -105 60 -193 137 l-76 66 139
7 c97 4 163 13 214 28 42 12 86 18 100 15 49 -12 438 -45 536 -45 121 0 234
25 345 77 391 183 630 313 630 342 0 5 -21 11 -47 15 -44 6 -56 1 -282 -113
-318 -160 -437 -207 -581 -226 -40 -6 -278 10 -516 34 -80 8 -84 10 -162 69
-44 34 -101 86 -127 117 -94 110 -124 42 -42 -97 14 -25 44 -61 66 -81 23 -20
41 -39 41 -40 0 -8 -147 -37 -240 -48 -109 -13 -101 -18 -166 99 -52 95 -128
185 -287 343 -75 74 -94 99 -123 166 -19 43 -43 125 -54 183 -12 58 -28 132
-37 165 -10 38 -16 99 -17 165 0 113 -4 97 90 335 25 66 69 183 96 260 l49
141 113 21 c150 29 266 84 333 157 26 29 81 106 122 172 41 65 94 146 118 179
57 78 119 270 143 440 12 90 18 114 24 95 21 -66 67 -79 93 -26 9 19 23 36 32
39 9 2 22 25 30 53 7 27 15 45 16 39 2 -5 6 -22 9 -37z m-771 -55 c-20 -8 -15
-31 8 -38 18 -6 19 -9 6 -23 -8 -10 -22 -32 -32 -50 -23 -46 -30 -34 -9 17 12
31 14 45 6 53 -13 13 2 48 21 47 9 0 9 -2 0 -6z m-29 -302 c10 -16 -6 -14 -30
4 -12 8 -25 11 -29 7 -5 -4 -6 0 -3 8 3 8 14 41 24 72 l19 57 6 -69 c4 -37 10
-73 13 -79z m7206 -92 c-12 -23 -24 -39 -26 -36 -5 5 35 77 42 77 3 0 -5 -18
-16 -41z m-4110 -59 c13 -8 11 -13 -9 -32 -13 -13 -21 -18 -17 -11 3 6 2 14
-3 18 -10 6 -4 35 8 35 3 0 13 -5 21 -10z m-825 -77 c-2 -43 -6 -77 -9 -76 -3
1 -41 4 -84 7 -95 8 -182 25 -182 36 0 4 42 24 93 44 50 20 103 43 117 51 14
8 35 14 46 15 21 0 22 -4 19 -77z m5522 -843 c17 -6 36 -22 44 -36 21 -40 178
-178 244 -215 67 -37 141 -97 230 -185 33 -33 74 -71 90 -85 17 -13 41 -41 55
-61 36 -52 164 -202 236 -277 55 -57 60 -66 47 -79 -10 -10 -13 -25 -9 -45 5
-23 -5 -49 -44 -123 -42 -77 -59 -126 -100 -286 -42 -160 -60 -213 -108 -308
-32 -63 -95 -189 -141 -279 -45 -89 -104 -197 -130 -240 -26 -42 -75 -128
-108 -192 -89 -168 -165 -281 -205 -302 -43 -24 -139 -147 -182 -234 -19 -37
-46 -79 -61 -93 -16 -14 -73 -79 -128 -145 -55 -66 -134 -152 -176 -191 -42
-39 -105 -109 -141 -154 -36 -46 -84 -106 -107 -134 -23 -28 -95 -121 -160
-206 -64 -85 -140 -180 -168 -211 -27 -31 -93 -104 -145 -163 -113 -126 -357
-348 -526 -478 -253 -193 -287 -222 -416 -346 -86 -83 -177 -157 -257 -212
-82 -56 -135 -100 -155 -128 -21 -30 -61 -61 -131 -104 -55 -33 -116 -75 -135
-93 -81 -74 -503 -350 -630 -411 -41 -20 -100 -53 -130 -74 -30 -20 -131 -77
-225 -125 -93 -49 -188 -100 -210 -114 -22 -14 -92 -51 -155 -84 -63 -32 -119
-63 -125 -68 -36 -35 238 32 340 83 22 11 72 40 111 64 85 53 120 62 162 40
60 -31 78 -87 47 -146 -16 -32 -108 -95 -235 -163 -162 -86 -429 -158 -646
-173 -94 -7 -94 -7 -94 -34 0 -15 9 -35 20 -45 25 -23 26 -67 1 -89 -14 -13
-28 -15 -60 -10 -46 7 -90 51 -130 132 l-22 43 -32 -21 c-18 -12 -60 -35 -95
-51 -54 -25 -70 -29 -114 -23 -40 6 -54 12 -66 33 l-15 26 -91 -14 c-91 -14
-542 -120 -711 -168 -94 -26 -199 -60 -275 -88 -86 -32 -234 -53 -405 -59
-117 -5 -205 -14 -282 -29 -100 -21 -113 -21 -113 -8 0 9 -5 59 -11 111 -6 52
-12 181 -13 285 -2 134 -6 199 -16 220 -17 39 -22 457 -7 705 14 238 15 314 6
459 -4 68 -5 130 -2 138 10 26 49 32 145 22 127 -15 604 -14 758 0 536 51 863
154 1785 566 653 291 859 396 1185 604 333 213 848 582 1130 811 320 259 870
885 1047 1189 110 189 217 358 318 501 119 168 159 238 225 393 66 156 127
298 168 392 19 44 58 141 87 215 29 74 58 149 65 165 7 17 12 62 12 100 -1 99
16 230 36 276 9 21 17 39 18 39 0 0 15 -5 31 -10z m-679 -1117 c-68 -143 -87
-174 -216 -355 -49 -70 -150 -227 -224 -349 -73 -121 -171 -272 -218 -334
-125 -166 -449 -542 -593 -687 -111 -112 -462 -405 -564 -472 -58 -38 -521
-175 -728 -216 -60 -12 -153 -32 -205 -45 -138 -33 -269 -59 -275 -53 -3 2
-16 58 -30 124 -33 159 -60 244 -102 329 -50 99 -195 304 -278 394 -39 42 -88
99 -108 128 -52 71 -166 176 -277 253 -50 36 -99 70 -108 77 -22 15 -52 8 373
91 757 150 1060 212 1163 241 59 16 215 54 347 85 365 85 522 136 995 323 320
126 742 346 980 511 63 44 118 81 122 81 4 1 -21 -56 -54 -126z m-5727 -1093
c41 -10 106 -28 146 -38 40 -11 109 -23 155 -27 46 -4 144 -22 219 -40 125
-31 261 -52 368 -58 l45 -2 -75 -60 c-110 -89 -252 -233 -297 -303 -75 -116
-144 -311 -172 -491 -13 -80 -8 -150 15 -205 l15 -36 -47 19 c-27 10 -84 33
-128 51 -146 58 -358 173 -518 279 l-157 106 -16 54 c-13 41 -15 86 -12 195 4
133 6 147 42 246 21 58 53 148 71 200 23 67 39 98 54 105 11 5 21 16 21 24 0
19 169 7 271 -19z m1725 -141 c3 -6 -5 -3 -20 6 -14 10 -26 19 -26 22 0 7 39
-17 46 -28z m-79 15 c-3 -3 -12 -4 -19 -1 -8 3 -5 6 6 6 11 1 17 -2 13 -5z
m-60 -10 c-3 -3 -12 -4 -19 -1 -8 3 -5 6 6 6 11 1 17 -2 13 -5z m-74 -11 c-7
-2 -19 -2 -25 0 -7 3 -2 5 12 5 14 0 19 -2 13 -5z m-100 -10 c-7 -2 -19 -2
-25 0 -7 3 -2 5 12 5 14 0 19 -2 13 -5z m-231 -10 c-65 -3 -77 -7 -99 -31
l-24 -27 22 33 c23 32 23 32 98 30 l76 -2 -73 -3z m589 -10 c13 -16 12 -17 -3
-4 -10 7 -18 15 -18 17 0 8 8 3 21 -13z m50 -40 c13 -16 12 -17 -3 -4 -17 13
-22 21 -14 21 2 0 10 -8 17 -17z m40 -30 c13 -16 12 -17 -3 -4 -17 13 -22 21
-14 21 2 0 10 -8 17 -17z m40 -30 c13 -16 12 -17 -3 -4 -10 7 -18 15 -18 17 0
8 8 3 21 -13z m-911 -6 c0 -2 -10 -12 -22 -23 l-23 -19 19 23 c18 21 26 27 26
19z m970 -42 c13 -14 21 -25 18 -25 -2 0 -15 11 -28 25 -13 14 -21 25 -18 25
2 0 15 -11 28 -25z m85 -95 c10 -11 16 -20 13 -20 -3 0 -13 9 -23 20 -10 11
-16 20 -13 20 3 0 13 -9 23 -20z m106 -147 c13 -16 12 -17 -3 -4 -17 13 -22
21 -14 21 2 0 10 -8 17 -17z m-3981 -474 c55 -84 100 -155 100 -158 -1 -3 -52
-60 -115 -126 l-115 -120 6 58 c6 50 5 57 -11 57 -10 0 -64 -44 -119 -98 -96
-92 -218 -192 -236 -192 -5 0 -2 20 7 45 15 46 8 75 -21 75 -6 0 -47 -27 -91
-60 -80 -60 -284 -168 -361 -190 l-42 -13 -183 104 c-101 57 -242 134 -314
171 -71 38 -119 66 -105 63 117 -24 380 -32 482 -16 90 15 218 52 234 68 20
21 11 29 -54 49 -55 17 -56 18 -27 25 17 3 56 7 89 8 144 3 541 91 541 120 0
9 -23 20 -60 31 -120 33 -133 60 -29 60 88 0 284 70 284 101 0 12 -9 21 -27
25 -57 12 -58 16 -11 33 26 9 50 19 54 24 4 4 11 7 16 7 5 0 54 -68 108 -151z
m4187 49 c-3 -8 -6 -5 -6 6 -1 11 2 17 5 13 3 -3 4 -12 1 -19z m101 -115 c16
-43 44 -140 62 -215 20 -87 38 -143 50 -153 33 -30 170 -30 361 0 l26 4 -2
-112 c-5 -191 12 -167 -203 -294 -235 -139 -366 -211 -562 -307 l-154 -77 -22
43 c-33 63 -40 115 -19 138 9 10 15 25 13 32 -3 7 33 68 78 135 46 67 99 154
118 192 59 117 206 590 206 664 0 47 17 29 48 -50z m-121 35 c-3 -8 -6 -5 -6
6 -1 11 2 17 5 13 3 -3 4 -12 1 -19z m-1684 -270 c64 -212 124 -372 204 -537
43 -89 67 -127 117 -178 l63 -64 -18 -141 c-10 -77 -24 -211 -31 -296 l-12
-155 -31 -13 c-86 -36 -78 -42 -154 117 -89 187 -134 307 -303 809 -77 227
-144 423 -150 433 -9 18 -7 19 33 13 70 -10 101 4 119 51 8 22 27 58 42 79 15
21 32 52 39 67 9 19 15 24 20 15 3 -7 32 -97 62 -200z m1558 -125 c-12 -20
-14 -14 -5 12 4 9 9 14 11 11 3 -2 0 -13 -6 -23z m-1079 -596 c21 -16 50 -27
78 -30 l45 -4 -46 -1 c-39 -2 -51 3 -87 34 -23 19 -42 43 -41 52 0 13 2 11 9
-4 5 -12 24 -33 42 -47z m701 -4 c-13 -2 -35 -2 -50 0 -16 2 -5 4 22 4 28 0
40 -2 28 -4z m-116 -9 c-3 -3 -12 -4 -19 -1 -8 3 -5 6 6 6 11 1 17 -2 13 -5z
m-74 -11 c-7 -2 -19 -2 -25 0 -7 3 -2 5 12 5 14 0 19 -2 13 -5z m-110 -10
c-13 -2 -35 -2 -50 0 -16 2 -5 4 22 4 28 0 40 -2 28 -4z m384 -125 c-3 -8 -6
-5 -6 6 -1 11 2 17 5 13 3 -3 4 -12 1 -19z m-734 0 c-6 -7 -13 -20 -16 -28 -3
-9 -6 -3 -6 13 -1 19 4 27 15 27 12 0 14 -4 7 -12z m524 -4 c-3 -3 -12 -4 -19
-1 -8 3 -5 6 6 6 11 1 17 -2 13 -5z m-410 -10 c-3 -3 -12 -4 -19 -1 -8 3 -5 6
6 6 11 1 17 -2 13 -5z m316 -1 c-7 -2 -21 -2 -30 0 -10 3 -4 5 12 5 17 0 24
-2 18 -5z m-170 -10 c-13 -2 -35 -2 -50 0 -16 2 -5 4 22 4 28 0 40 -2 28 -4z
m-286 -175 c-2 -13 -4 -5 -4 17 -1 22 1 32 4 23 2 -10 2 -28 0 -40z m-10 -115
c-3 -10 -5 -2 -5 17 0 19 2 27 5 18 2 -10 2 -26 0 -35z m-10 -100 c-3 -10 -5
-4 -5 12 0 17 2 24 5 18 2 -7 2 -21 0 -30z m-1882 -3343 c9 -25 23 -101 31
-170 8 -69 26 -190 40 -270 14 -80 32 -198 40 -263 8 -64 21 -136 28 -160 41
-121 96 -387 116 -557 6 -52 13 -105 15 -117 4 -17 -4 -26 -43 -45 -26 -12
-54 -24 -62 -24 -27 -3 -196 -80 -292 -134 -224 -127 -915 -558 -1194 -746
-195 -131 -464 -273 -569 -299 -116 -29 -206 -15 -224 37 -31 88 6 168 130
279 170 153 193 177 179 194 -17 20 -45 19 -111 -4 -97 -33 -142 -62 -221
-141 -96 -95 -138 -176 -138 -262 0 -53 -2 -58 -22 -58 -13 0 -42 -7 -65 -15
-39 -13 -125 -19 -251 -16 -64 1 -102 31 -102 81 0 63 48 129 223 303 68 68
106 112 89 103 -16 -8 -58 -26 -93 -39 -78 -29 -174 -79 -212 -110 -26 -20
-39 -22 -135 -21 -114 0 -203 16 -223 40 -18 22 6 64 90 161 115 131 215 187
631 350 63 25 169 65 235 88 66 24 174 64 240 90 66 26 158 57 205 71 47 13
171 53 275 89 231 78 375 113 653 160 117 19 243 41 280 49 37 7 90 14 117 15
105 4 118 40 81 221 -33 159 -34 276 -2 480 13 85 27 180 31 210 4 30 24 143
45 250 41 207 85 340 129 392 l26 32 7 -100 c3 -54 14 -119 23 -144z m3381
-1127 c136 -148 254 -285 254 -295 0 -4 -120 -7 -267 -6 -255 1 -274 -1 -379
-25 -62 -14 -128 -33 -148 -41 -75 -31 -192 -124 -330 -261 -78 -77 -196 -192
-262 -255 -68 -65 -173 -181 -241 -267 -66 -84 -148 -182 -182 -218 -54 -58
-70 -69 -134 -90 -39 -13 -114 -42 -166 -64 -52 -23 -96 -39 -98 -37 -2 1 16
39 40 82 99 179 292 577 336 694 26 69 69 193 96 275 26 83 66 195 87 250 45
112 70 192 89 278 7 32 16 60 20 62 10 7 155 -112 259 -210 148 -141 168 -155
217 -155 26 0 62 10 91 24 61 31 210 129 325 214 106 78 247 170 264 171 6 1
65 -56 129 -126z m4069 -387 l40 -1 6 -52 c13 -104 92 -192 234 -259 71 -34
123 -45 380 -79 387 -51 445 -86 641 -380 110 -165 194 -329 177 -346 -5 -5
-43 -30 -85 -56 -42 -26 -139 -94 -215 -149 -151 -111 -219 -152 -304 -184
-31 -11 -94 -45 -140 -76 -155 -101 -246 -140 -463 -195 -136 -34 -224 -63
-280 -90 -69 -34 -95 -41 -181 -49 -106 -10 -153 -23 -305 -88 -52 -22 -156
-57 -230 -77 -145 -39 -218 -73 -256 -118 l-24 -29 0 34 c0 71 33 346 75 618
47 301 67 448 85 620 42 406 91 756 107 784 3 4 7 26 8 47 7 94 7 93 103 117
81 19 105 20 337 15 138 -4 268 -7 290 -7z m2544 -88 c-29 -55 -115 -162 -239
-297 -43 -47 -105 -120 -138 -161 -120 -151 -332 -341 -471 -423 l-30 -18 -47
93 c-72 145 -248 404 -321 474 -34 33 -63 63 -63 66 0 3 24 8 53 12 28 4 92
16 142 28 79 18 103 20 200 12 193 -15 308 -10 424 20 94 24 271 99 436 184
33 17 61 31 63 32 1 0 -3 -10 -9 -22z m-6168 -116 c30 -58 57 -95 80 -111 32
-22 40 -23 142 -17 93 6 127 3 245 -20 123 -24 151 -26 272 -20 118 5 180 16
241 41 15 6 17 -21 23 -272 4 -153 9 -309 12 -348 6 -78 -11 -746 -26 -1035
-5 -102 -17 -268 -26 -370 l-17 -185 -246 -5 c-550 -11 -732 -1 -986 55 -160
36 -260 70 -393 136 -46 23 -102 47 -126 54 -60 18 -218 124 -291 195 -35 34
-89 73 -131 93 -39 20 -107 60 -150 90 -109 75 -144 91 -261 122 l-102 27 -83
-21 c-46 -11 -126 -23 -178 -27 -77 -6 -90 -9 -67 -16 15 -5 27 -14 27 -19 0
-5 7 -9 15 -9 22 0 95 -31 95 -40 0 -5 -26 -14 -57 -20 -32 -6 -101 -22 -153
-35 -52 -13 -138 -28 -190 -35 -141 -16 -225 -38 -324 -82 -48 -22 -138 -51
-198 -65 -61 -13 -143 -38 -183 -54 -41 -16 -77 -29 -82 -29 -4 0 29 39 75 87
46 49 113 133 149 188 36 55 88 134 116 175 72 106 183 274 244 371 l52 82
116 38 c102 34 244 96 325 142 14 8 55 28 91 45 91 42 187 122 380 318 281
286 521 512 594 562 59 40 87 51 175 71 100 23 118 23 355 18 138 -3 275 -2
305 2 98 14 91 19 141 -77z m-4463 -1612 c-19 -21 -52 -71 -74 -111 -21 -40
-66 -102 -99 -138 -34 -36 -96 -107 -139 -158 -43 -51 -108 -117 -144 -147
-37 -30 -134 -124 -217 -209 -453 -467 -412 -432 -529 -452 -112 -18 -201 -46
-290 -89 -65 -32 -68 -32 -89 -16 -20 17 -20 18 -4 61 9 24 42 72 72 106 58
64 69 99 39 124 -16 13 -111 16 -184 4 -19 -3 -85 -8 -146 -11 -137 -8 -184 4
-184 44 1 73 91 172 210 232 65 32 73 40 59 56 -7 9 -31 14 -61 14 -27 0 -61
6 -76 14 -15 7 -49 19 -76 25 -115 28 -216 97 -216 147 0 38 53 107 120 159
53 41 68 47 147 59 48 8 143 30 211 50 68 20 132 36 142 36 11 0 39 7 64 15
135 46 537 105 715 105 228 0 423 27 619 86 30 9 77 20 105 24 29 4 53 8 55 9
2 0 -12 -17 -30 -39z m437 -306 c61 -61 137 -128 169 -149 84 -54 182 -86 272
-88 41 -1 74 -4 74 -8 0 -4 -27 -31 -60 -60 -33 -29 -85 -82 -114 -118 -30
-36 -114 -127 -188 -201 -74 -74 -147 -154 -162 -176 l-27 -42 -116 54 c-164
75 -211 106 -373 250 -79 70 -162 140 -183 155 -29 21 -36 30 -24 34 8 4 55
54 105 113 49 59 126 147 171 195 44 49 94 114 111 146 17 31 53 85 81 120
l51 62 51 -88 c38 -64 82 -118 162 -199z m-785 -413 c0 -17 155 -195 236 -270
117 -110 259 -198 372 -231 23 -7 42 -16 42 -19 0 -4 -46 -56 -103 -116 -57
-61 -131 -142 -164 -180 -33 -39 -118 -129 -187 -200 -136 -138 -161 -177
-298 -454 l-52 -104 -80 -38 c-155 -72 -231 -93 -336 -94 -84 0 -103 4 -165
30 -57 25 -71 35 -73 55 -5 46 56 297 93 381 19 45 56 107 80 139 l45 58 -62
-26 c-39 -17 -86 -50 -128 -89 -83 -78 -129 -165 -167 -317 l-27 -109 -46 -20
c-56 -26 -161 -27 -207 -3 -18 9 -61 44 -97 79 -60 56 -66 66 -66 102 0 82 97
184 252 264 40 21 108 57 152 80 43 22 91 41 106 41 33 0 90 44 90 69 0 63
-116 76 -215 26 -257 -132 -383 -214 -434 -284 l-20 -26 -22 22 c-18 18 -22
33 -22 81 0 56 3 65 57 145 68 99 189 214 296 281 87 54 256 112 366 126 90
11 96 15 186 93 39 34 100 85 134 112 158 125 266 220 354 309 91 92 110 107
110 87z m7200 -917 c-6 -87 -15 -231 -20 -319 -6 -88 -10 -179 -10 -201 0 -23
-6 -46 -12 -51 -32 -23 -157 -68 -193 -69 -22 0 -147 -6 -277 -14 -267 -15
-505 -5 -723 30 -66 11 -137 20 -157 20 -21 0 -38 3 -38 8 0 4 7 52 16 107 8
55 32 218 54 363 21 145 41 266 44 269 3 3 33 -2 68 -10 464 -118 583 -133
826 -106 204 22 319 53 384 104 23 19 44 33 45 31 2 -1 -2 -74 -7 -162z
m-1318 -729 c264 -63 334 -70 723 -70 310 0 366 2 405 17 25 9 59 19 75 23 17
3 38 16 47 28 l18 22 -1 -30 c0 -16 -4 -66 -9 -110 -6 -44 -14 -199 -19 -345
-11 -284 -18 -332 -80 -513 -17 -48 -35 -113 -41 -145 -20 -113 -28 -138 -77
-232 -117 -224 -153 -271 -250 -323 -110 -59 -257 -44 -333 34 -61 64 -97 125
-117 200 -23 91 -32 90 -48 -2 -8 -44 17 -148 46 -196 12 -19 20 -36 18 -38
-13 -12 -135 -47 -192 -54 -81 -11 -251 2 -318 24 -59 20 -140 103 -175 180
-20 44 -27 77 -31 165 -5 96 -8 110 -24 110 -40 0 -68 -177 -47 -296 l8 -41
-108 -27 c-119 -29 -183 -32 -257 -12 -118 31 -225 117 -269 215 -44 99 -59
192 -45 275 14 84 39 145 71 176 48 47 170 119 245 145 43 14 110 40 148 56
39 16 77 29 85 29 37 0 105 61 185 165 127 165 176 277 221 508 11 55 21 87
30 87 7 0 59 -11 116 -25z"/>
<path d="M8859 28197 c6 -8 7 -18 3 -22 -4 -5 -1 -5 6 -1 10 6 10 11 1 22 -6
8 -14 14 -16 14 -3 0 0 -6 6 -13z"/>
<path d="M8945 28520 c-4 -12 -11 -17 -18 -14 -8 5 -8 2 1 -7 6 -7 12 -22 11
-33 0 -21 -1 -21 -8 -1 -7 18 -8 17 -13 -7 -3 -15 -1 -33 3 -40 5 -7 9 -29 9
-48 0 -24 -3 -31 -9 -21 -5 8 -7 20 -4 27 2 7 0 21 -7 31 -10 16 -10 15 -5 -5
4 -13 1 -30 -7 -39 -7 -9 -8 -14 -2 -10 7 4 15 0 18 -9 9 -24 7 -28 -7 -16
-10 9 -13 6 -13 -13 0 -13 3 -22 7 -19 4 2 6 -11 4 -29 -3 -34 -21 -41 -19 -7
1 11 -2 17 -6 15 -12 -8 -7 -28 16 -60 17 -24 19 -35 11 -53 -6 -14 -7 -26 -1
-32 5 -5 10 0 11 13 6 65 10 87 16 93 3 3 1 17 -4 31 -10 28 -3 47 13 37 7 -4
8 -2 4 5 -4 6 -1 13 6 16 14 6 19 101 5 122 -4 7 -6 31 -3 53 5 43 1 52 -9 20z
m6 -139 c-9 -57 -33 -93 -46 -70 -5 7 -4 10 3 5 25 -15 43 71 22 104 -6 9 -5
17 3 22 21 13 27 -6 18 -61z m-31 -145 c-5 -5 -6 -16 -3 -25 4 -13 3 -14 -5
-1 -6 8 -8 19 -4 25 4 5 6 19 4 30 l-2 20 9 -20 c5 -11 5 -24 1 -29z"/>
<path d="M8941 28424 c0 -11 3 -14 6 -6 3 7 2 16 -1 19 -3 4 -6 -2 -5 -13z"/>
<path d="M8904 28046 c-1 -11 -4 -26 -5 -32 -2 -7 1 -12 6 -12 6 -1 9 6 7 14
-2 9 2 21 8 29 8 9 7 14 -2 18 -8 2 -14 -4 -14 -17z"/>
<path d="M8908 27932 c-6 -23 6 -59 15 -45 4 7 3 15 -3 18 -8 5 -8 11 0 20 7
8 7 16 2 19 -6 3 -12 -2 -14 -12z"/>
<path d="M7906 24020 c-38 -10 -86 -26 -106 -35 -47 -21 -107 -92 -127 -151
-14 -41 -14 -51 1 -110 26 -104 69 -183 133 -246 132 -129 227 -188 304 -188
136 0 315 286 321 512 2 86 -20 138 -76 181 -53 41 -70 44 -231 50 -127 5
-161 3 -219 -13z m392 -88 c16 -1 28 -13 38 -37 45 -109 -37 -349 -170 -493
l-30 -32 -18 32 c-9 18 -17 41 -18 51 0 9 -4 17 -8 17 -5 0 -9 6 -10 13 0 6
-3 23 -6 37 -11 45 -16 74 -22 115 -7 55 -12 67 -24 60 -15 -10 -13 -78 3 -69
9 5 9 4 1 -5 -14 -15 11 -162 29 -173 7 -4 9 -8 4 -8 -4 0 2 -18 13 -40 11
-22 18 -40 14 -40 -12 0 -131 90 -191 144 -33 31 -73 77 -88 102 -33 56 -85
181 -85 203 1 24 57 81 81 81 11 0 57 9 102 20 45 11 102 21 127 22 51 3 223
3 258 0z"/>
<path d="M13690 28951 c-138 -16 -537 -252 -799 -475 -127 -107 -299 -285
-326 -337 -13 -25 -36 -101 -50 -170 -36 -165 -41 -419 -11 -543 17 -73 23
-83 73 -129 30 -28 86 -72 126 -97 104 -68 240 -193 332 -306 160 -198 559
-586 663 -645 26 -14 123 -72 215 -128 163 -99 285 -157 352 -168 30 -5 37 1
109 83 69 78 79 95 100 168 24 81 42 181 74 396 24 164 20 488 -8 687 -48 339
-129 697 -206 910 -25 70 -79 193 -120 272 -136 265 -248 407 -365 467 -49 24
-62 26 -159 15z m-20 -571 c64 -100 136 -349 170 -586 27 -184 38 -627 21
-799 -7 -66 -16 -123 -19 -127 -4 -4 -22 21 -39 55 -18 34 -62 98 -98 142 -99
123 -153 151 -193 101 l-19 -25 -59 60 c-65 66 -126 100 -164 93 -20 -4 -37 7
-87 54 -79 76 -240 182 -375 247 l-107 52 64 106 c35 59 84 133 109 166 94
122 337 331 500 431 38 23 98 64 134 91 l66 49 33 -32 c19 -18 47 -53 63 -78z
m-653 -1406 c-3 -3 -12 -4 -19 -1 -8 3 -5 6 6 6 11 1 17 -2 13 -5z"/>
<path d="M11815 28719 c-136 -20 -255 -74 -255 -115 0 -19 5 -18 53 11 65 37
167 58 272 53 79 -3 98 -8 154 -38 36 -19 89 -57 118 -84 30 -27 56 -46 59
-43 10 10 -37 88 -77 128 -77 77 -192 108 -324 88z"/>
<path d="M11020 28122 c-101 -34 -230 -111 -230 -137 0 -10 29 0 97 33 89 43
103 46 187 50 101 4 127 -2 371 -96 178 -69 260 -85 425 -85 99 0 162 6 236
22 133 27 234 59 234 73 0 6 -9 8 -22 4 -13 -4 -50 -14 -83 -24 -46 -13 -97
-17 -215 -16 -182 0 -215 7 -535 116 -198 68 -216 72 -310 75 -76 2 -113 -1
-155 -15z"/>
<path d="M10065 27789 c-129 -10 -257 -47 -312 -91 -27 -21 0 -27 37 -8 64 33
178 59 284 66 183 12 317 -25 419 -116 45 -40 118 -143 222 -315 68 -111 161
-203 255 -248 127 -63 308 -88 344 -48 16 18 15 19 -41 26 -78 10 -213 49
-276 81 -85 44 -160 125 -260 283 -136 215 -218 294 -354 343 -70 25 -196 35
-318 27z"/>
<path d="M9455 27353 c-65 -9 -260 -66 -336 -98 -225 -97 -399 -204 -533 -329
-65 -62 -76 -86 -37 -86 10 0 71 38 136 85 121 87 285 174 451 238 232 91 447
120 581 78 112 -34 169 -73 288 -199 246 -259 289 -299 351 -330 69 -35 187
-62 268 -62 65 0 83 16 29 25 -131 22 -276 129 -465 341 -174 196 -317 295
-477 329 -67 14 -185 18 -256 8z"/>
<path d="M11560 27069 c-36 -10 -95 -18 -131 -18 -54 -1 -69 -5 -85 -22 l-19
-22 70 7 c110 11 255 52 255 71 0 7 -18 4 -90 -16z"/>
<path d="M12240 26849 c0 -13 61 -73 88 -88 11 -6 29 -4 52 6 l35 15 -65 33
c-83 41 -110 50 -110 34z"/>
<path d="M8790 26814 c-16 -46 -132 -165 -218 -223 -143 -96 -252 -123 -392
-97 -47 8 -97 18 -112 22 -22 5 -28 3 -28 -10 0 -42 203 -85 315 -67 169 27
373 184 444 341 23 49 26 70 12 70 -5 0 -15 -16 -21 -36z"/>
<path d="M12969 26779 c-32 -17 -206 -42 -309 -43 -75 0 -123 5 -166 18 -57
16 -63 17 -100 1 l-39 -16 50 -29 c107 -63 217 -85 326 -64 78 14 222 79 253
112 19 22 10 35 -15 21z"/>
<path d="M14843 26664 c-3 -8 2 -39 11 -67 32 -96 41 -215 28 -355 -14 -157
-54 -352 -93 -452 -31 -82 -33 -90 -20 -90 23 0 124 288 158 450 26 125 24
343 -5 428 -28 86 -64 125 -79 86z"/>
<path d="M15125 26238 c-2 -7 -11 -64 -20 -126 -28 -198 -101 -445 -194 -653
-28 -63 -51 -118 -51 -122 0 -45 120 193 183 363 41 111 71 220 92 340 17 99
20 210 5 210 -6 0 -12 -6 -15 -12z"/>
<path d="M13565 26181 c-34 -14 -101 -16 -442 -16 -221 0 -404 -3 -408 -7 -15
-15 40 -27 195 -43 212 -22 461 -16 565 13 89 25 121 38 130 52 11 17 3 18
-40 1z"/>
<path d="M12984 25946 c-16 -12 -16 -14 8 -30 37 -24 246 -75 358 -87 113 -12
252 -8 257 7 6 17 -222 82 -342 98 -172 23 -261 26 -281 12z"/>
<path d="M13177 25693 c-15 -14 -4 -22 69 -53 129 -54 216 -72 344 -71 114 0
261 26 250 44 -3 4 -43 9 -90 12 -47 2 -184 19 -305 39 -228 37 -257 40 -268
29z"/>
</g>
</svg>
